<svg xmlns="http://www.w3.org/2000/svg" viewBox="0 0 64 64" role="img" aria-labelledby="title desc">
    <title id="title">Alokasi</title>
    <desc id="desc">Alokasi application logo</desc>
    <rect width="64" height="64" rx="16" fill="#ecfdf5"/>
    <circle cx="32" cy="32" r="22" fill="#22c55e"/>
    <path fill="#ffffff" fill-rule="evenodd" d="M21 18.5a2 2 0 0 1 2-2h20a2 2 0 1 1 0 4h-5.2a10.1 10.1 0 0 1 2.05 4H43a2 2 0 1 1 0 4h-3.15A10.02 10.02 0 0 1 30 36.5h-2.17l9.58 9.59a2 2 0 0 1-2.82 2.82l-13-13A2 2 0 0 1 23 32.5h7a6.02 6.02 0 0 0 5.65-4H23a2 2 0 1 1 0-4h12.65a6.02 6.02 0 0 0-5.65-4h-7a2 2 0 0 1-2-2Z" clip-rule="evenodd"/>
</svg>
